<svg width="502" height="185" viewBox="0 0 502 185" fill="none" xmlns="http://www.w3.org/2000/svg">
<rect width="502" height="185" fill="white"/>
<path d="M88.0768 86.9754C88.0768 86.4053 88.3083 85.8597 88.7183 85.4631L101.404 73.1912C102.741 71.8972 104.98 72.8437 104.98 74.7037V118.074C104.98 119.966 102.676 120.898 101.357 119.54L88.6717 106.476C88.2902 106.083 88.0768 105.558 88.0768 105.01V86.9754Z" fill="#3456F5"/>
<path d="M58.0069 80.6517C58.0069 80.099 57.7891 79.5683 57.4008 79.1744L44.7153 66.3088C43.3917 64.9664 41.1042 65.9024 41.1042 67.7861V111.129C41.1042 112.996 43.3567 113.94 44.6904 112.632L57.3759 100.188C57.7794 99.7923 58.0069 99.2509 58.0069 98.686V80.6517Z" fill="#3456F5"/>
<path d="M101.43 40.6175C102.759 39.2924 105.029 40.2322 105.029 42.1074V62.5602C105.029 63.1186 104.807 63.6541 104.411 64.049L83.7969 84.6347C83.4014 85.0296 83.1793 85.5651 83.1793 86.1236V104.2C83.1793 104.758 82.957 105.294 82.5612 105.689L44.7596 143.414C43.431 144.74 41.1605 143.8 41.1605 141.925V122.489C41.1605 121.93 41.3826 121.395 41.7781 121L61.8325 100.974C62.2278 100.579 62.45 100.043 62.45 99.4847V80.3632C62.45 79.8042 62.6726 79.2681 63.0686 78.8732L101.43 40.6175Z" fill="#3456F5"/>
<mask id="mask0_2279_2716" style="mask-type:luminance" maskUnits="userSpaceOnUse" x="138" y="39" width="346" height="102">
<path d="M484 39H138V141H484V39Z" fill="white"/>
</mask>
<g mask="url(#mask0_2279_2716)">
<mask id="mask1_2279_2716" style="mask-type:luminance" maskUnits="userSpaceOnUse" x="138" y="64" width="24" height="71">
<path d="M138.249 64.7998H161.378V134.4H138.249V64.7998Z" fill="white"/>
</mask>
<g mask="url(#mask1_2279_2716)">
<path d="M144.781 133.973C143.371 133.973 142.129 133.893 141.056 133.738C139.978 133.581 139.062 133.394 138.307 133.176V123.801C139.062 123.97 139.873 124.131 140.736 124.288C141.594 124.45 142.508 124.532 143.476 124.532C144.747 124.532 145.889 124.281 146.9 123.782C147.916 123.288 148.72 122.35 149.311 120.97C149.9 119.587 150.197 117.602 150.197 115.007V65.2354H161.165V114.942C161.165 119.491 160.473 123.166 159.092 125.967C157.715 128.765 155.795 130.799 153.329 132.07C150.864 133.338 148.014 133.973 144.781 133.973Z" fill="#3456F3"/>
</g>
<path d="M209.305 97.9731C209.305 101.362 208.859 104.365 207.971 106.983C207.088 109.603 205.802 111.815 204.118 113.62C202.43 115.42 200.401 116.784 198.026 117.708C195.657 118.626 192.985 119.086 190.008 119.086C187.225 119.086 184.671 118.626 182.346 117.708C180.027 116.784 178.011 115.42 176.301 113.62C174.589 111.815 173.269 109.603 172.338 106.983C171.406 104.365 170.94 101.362 170.94 97.9731C170.94 93.4685 171.717 89.6528 173.269 86.5263C174.826 83.4021 177.045 81.0302 179.926 79.4106C182.805 77.7864 186.239 76.9731 190.227 76.9731C193.928 76.9731 197.214 77.7864 200.081 79.4106C202.949 81.0302 205.2 83.4021 206.839 86.5263C208.483 89.6528 209.305 93.4685 209.305 97.9731ZM181.945 97.9731C181.945 100.636 182.228 102.876 182.794 104.695C183.36 106.509 184.241 107.878 185.442 108.801C186.648 109.72 188.218 110.179 190.154 110.179C192.065 110.179 193.616 109.72 194.803 108.801C195.994 107.878 196.869 106.509 197.424 104.695C197.976 102.876 198.255 100.636 198.255 97.9731C198.255 95.2872 197.976 93.0513 197.424 91.27C196.869 89.4888 195.99 88.1528 194.784 87.2575C193.584 86.3575 192.017 85.9075 190.081 85.9075C187.225 85.9075 185.155 86.9153 183.871 88.9263C182.586 90.9396 181.945 93.956 181.945 97.9731Z" fill="#3456F3"/>
<path d="M229.011 61.8223V74.9754C229.011 76.5012 228.968 78.0129 228.883 79.5129C228.803 81.0129 228.705 82.1754 228.591 83.0004H229.011C230.052 81.3316 231.468 79.9113 233.258 78.7348C235.052 77.5605 237.379 76.9723 240.235 76.9723C244.666 76.9723 248.262 78.7535 251.02 82.316C253.782 85.8738 255.166 91.091 255.166 97.9723C255.166 102.599 254.529 106.48 253.257 109.616C251.983 112.754 250.202 115.117 247.915 116.704C245.625 118.293 242.97 119.085 239.952 119.085C237.047 119.085 234.758 118.55 233.084 117.482C231.408 116.413 230.052 115.213 229.011 113.882H228.271L226.463 118.354H218.217V61.8223H229.011ZM236.764 85.8316C234.876 85.8316 233.376 86.2324 232.262 87.0316C231.153 87.8332 230.347 89.0332 229.842 90.6316C229.335 92.2324 229.059 94.2551 229.011 96.6973V97.8973C229.011 101.849 229.577 104.87 230.71 106.963C231.842 109.058 233.906 110.104 236.901 110.104C239.123 110.104 240.888 109.051 242.198 106.944C243.506 104.839 244.161 101.797 244.161 97.8223C244.161 93.8543 243.499 90.8637 242.18 88.8504C240.858 86.8395 239.052 85.8316 236.764 85.8316Z" fill="#3456F3"/>
<path d="M291.689 106.289C291.689 109.052 291.055 111.386 289.79 113.292C288.53 115.193 286.648 116.634 284.146 117.614C281.648 118.593 278.534 119.086 274.804 119.086C272.046 119.086 269.681 118.9 267.708 118.533C265.74 118.172 263.754 117.567 261.745 116.723V107.564C263.893 108.558 266.201 109.378 268.667 110.02C271.133 110.658 273.297 110.976 275.16 110.976C277.26 110.976 278.763 110.658 279.671 110.02C280.578 109.378 281.032 108.534 281.032 107.489C281.032 106.814 280.849 106.204 280.484 105.661C280.119 105.112 279.333 104.493 278.128 103.804C276.927 103.111 275.044 102.208 272.475 101.095C269.996 100.033 267.959 98.9575 266.366 97.87C264.77 96.7778 263.59 95.4864 262.822 93.9981C262.06 92.5052 261.681 90.6091 261.681 88.3075C261.681 84.5528 263.101 81.7239 265.946 79.8231C268.788 77.9247 272.589 76.9731 277.352 76.9731C279.804 76.9731 282.146 77.231 284.374 77.7419C286.607 78.2481 288.904 79.0591 291.26 80.17L288.009 88.1575C286.048 87.2903 284.201 86.5778 282.466 86.02C280.735 85.4646 278.973 85.1856 277.178 85.1856C275.594 85.1856 274.402 85.406 273.598 85.8419C272.799 86.2731 272.402 86.9388 272.402 87.8388C272.402 88.4903 272.605 89.0716 273.014 89.5825C273.427 90.0888 274.231 90.6513 275.425 91.27C276.617 91.8888 278.37 92.6833 280.685 93.6513C282.925 94.5958 284.87 95.5825 286.52 96.6138C288.169 97.6403 289.443 98.9106 290.338 100.429C291.237 101.943 291.689 103.896 291.689 106.289Z" fill="#3456F3"/>
<path d="M322.867 118.355L310.411 76.6827H310.091C310.139 77.6765 310.215 79.1741 310.32 81.1733C310.429 83.1679 310.53 85.2937 310.621 87.5483C310.717 89.7983 310.767 91.8327 310.767 93.6515V118.355H300.959V65.2358H315.899L328.137 105.858H328.356L341.342 65.2358H356.273V118.355H346.045V93.2108C346.045 91.5421 346.074 89.6179 346.136 87.4358C346.195 85.2562 346.273 83.1772 346.364 81.2015C346.46 79.228 346.533 77.7468 346.584 76.7577H346.264L332.922 118.355H322.867Z" fill="#3456F3"/>
<path d="M384.658 76.8979C389.966 76.8979 394.037 78.0862 396.868 80.4604C399.699 82.837 401.114 86.4464 401.114 91.2886V118.354H393.58L391.489 112.832H391.206C390.073 114.283 388.916 115.471 387.736 116.395C386.553 117.314 385.197 117.993 383.663 118.429C382.133 118.865 380.27 119.085 378.074 119.085C375.74 119.085 373.647 118.626 371.791 117.707C369.939 116.784 368.48 115.371 367.417 113.47C366.357 111.571 365.828 109.155 365.828 106.223C365.828 101.91 367.3 98.7323 370.247 96.6886C373.199 94.6401 377.626 93.5058 383.526 93.2854L390.393 93.0698V91.2886C390.393 89.1581 389.847 87.5948 388.758 86.6011C387.674 85.6073 386.167 85.1104 384.238 85.1104C382.325 85.1104 380.448 85.3894 378.603 85.9448C376.763 86.5026 374.925 87.2058 373.088 88.0542L369.508 80.5636C371.608 79.4269 373.96 78.5339 376.567 77.8823C379.179 77.2261 381.875 76.8979 384.658 76.8979ZM390.393 99.5292L386.22 99.6792C382.724 99.78 380.297 100.425 378.941 101.61C377.583 102.792 376.905 104.353 376.905 106.289C376.905 107.99 377.389 109.195 378.357 109.907C379.325 110.62 380.587 110.976 382.147 110.976C384.459 110.976 386.411 110.278 388 108.876C389.594 107.47 390.393 105.471 390.393 102.876V99.5292Z" fill="#3456F3"/>
<path d="M428.892 110.254C430.073 110.254 431.223 110.133 432.344 109.889C433.463 109.645 434.582 109.343 435.696 108.979V117.229C434.538 117.762 433.105 118.202 431.395 118.551C429.682 118.908 427.81 119.086 425.778 119.086C423.422 119.086 421.306 118.692 419.431 117.904C417.555 117.117 416.08 115.748 415.002 113.798C413.929 111.848 413.395 109.129 413.395 105.642V86.0576H408.226V81.3701L414.171 77.6576L417.285 69.0889H424.189V77.7326H435.267V86.0576H424.189V105.642C424.189 107.194 424.619 108.349 425.477 109.111C426.34 109.875 427.479 110.254 428.892 110.254Z" fill="#3456F3"/>
<path d="M479.651 97.9731C479.651 101.362 479.205 104.365 478.317 106.983C477.434 109.603 476.148 111.815 474.464 113.62C472.776 115.42 470.747 116.784 468.372 117.708C466.003 118.626 463.331 119.086 460.354 119.086C457.571 119.086 455.017 118.626 452.692 117.708C450.373 116.784 448.357 115.42 446.647 113.62C444.935 111.815 443.615 109.603 442.684 106.983C441.752 104.365 441.286 101.362 441.286 97.9731C441.286 93.4685 442.063 89.6528 443.615 86.5263C445.172 83.4021 447.391 81.0302 450.272 79.4106C453.151 77.7864 456.585 76.9731 460.573 76.9731C464.274 76.9731 467.56 77.7864 470.427 79.4106C473.295 81.0302 475.546 83.4021 477.185 86.5263C478.829 89.6528 479.651 93.4685 479.651 97.9731ZM452.291 97.9731C452.291 100.636 452.574 102.876 453.14 104.695C453.706 106.509 454.587 107.878 455.788 108.801C456.994 109.72 458.564 110.179 460.5 110.179C462.411 110.179 463.962 109.72 465.149 108.801C466.34 107.878 467.215 106.509 467.77 104.695C468.322 102.876 468.601 100.636 468.601 97.9731C468.601 95.2872 468.322 93.0513 467.77 91.27C467.215 89.4888 466.336 88.1528 465.13 87.2575C463.93 86.3575 462.363 85.9075 460.427 85.9075C457.571 85.9075 455.501 86.9153 454.217 88.9263C452.932 90.9396 452.291 93.956 452.291 97.9731Z" fill="#3456F3"/>
</g>
</svg>
