<svg width="192" height="192" viewBox="0 0 192 192" fill="none" xmlns="http://www.w3.org/2000/svg">
<path d="M121.044 86.4443C121.044 85.4582 121.444 84.5144 122.152 83.8284L144.064 62.6013C146.374 60.363 150.24 62.0002 150.24 65.2174V140.237C150.24 143.508 146.261 145.121 143.983 142.772L122.071 120.175C121.412 119.496 121.044 118.587 121.044 117.64V86.4443Z" fill="#3456F5"/>
<path d="M69.104 75.5056C69.104 74.5495 68.7279 73.6316 68.0571 72.9502L46.1455 50.6962C43.8592 48.3742 39.9079 49.9932 39.9079 53.2515V128.224C39.9079 131.453 43.7986 133.085 46.1024 130.822L68.014 109.298C68.7111 108.613 69.104 107.677 69.104 106.7V75.5056Z" fill="#3456F5"/>
<path d="M144.11 6.25738C146.405 3.96534 150.325 5.59089 150.325 8.83451V44.2123C150.325 45.1782 149.942 46.1045 149.259 46.7875L113.651 82.3952C112.968 83.0783 112.584 84.0045 112.584 84.9707V116.237C112.584 117.204 112.2 118.131 111.517 118.814L46.222 184.068C43.9271 186.361 40.0052 184.736 40.0052 181.492V147.873C40.0052 146.907 40.3889 145.98 41.072 145.297L75.712 110.657C76.3948 109.974 76.7786 109.048 76.7786 108.082V75.0066C76.7786 74.0397 77.1631 73.1125 77.8471 72.4294L144.11 6.25738Z" fill="#3456F5"/>
</svg>
